<svg xmlns="http://www.w3.org/2000/svg" xmlns:xlink="http://www.w3.org/1999/xlink" preserveAspectRatio="xMidYMid meet" version="1.0" viewBox="75.1 83.5 275.1 253.4" zoomAndPan="magnify" style="fill: rgb(0, 0, 0);" original_string_length="1596" width="32.64108148466951px" height="30.02979496589596px"><g id="__id10_spmsommwn"><path d="M165.131,166.997c0.01-0.573,0.026-1.147,0.05-1.721c1.565-38.956,36.612-66.991,71.982-73.239 c48.529-8.572,112.98,23.503,101.693,80.679c-6.045,30.611-27.739,58.36-58.458,66.86c-8.469,2.344-18.039,3.854-26.842,3.854 c-18.412,0-32.938-9.573-49.872,2.657c-4.952,3.575-10.076,16.13-17.93,13.363c-5.741-2.021-6.944-13.659-7.333-18.512 C176.421,216.031,164.689,192.074,165.131,166.997z" style="fill: rgb(15, 25, 68);"/></g><g id="__id11_spmsommwn"><circle cx="294.18" cy="167.375" r="11.328" style="fill: rgb(255, 255, 255);"/></g><g id="__id12_spmsommwn"><circle cx="254.166" cy="167.375" r="11.329" style="fill: rgb(255, 255, 255);"/></g><g id="__id13_spmsommwn"><circle cx="216.272" cy="167.375" r="11.328" style="fill: rgb(255, 255, 255);"/></g><g><g id="__id14_spmsommwn"><path d="M260.069,241.688c-0.01-0.573-0.026-1.147-0.05-1.721c-1.565-38.956-36.612-66.991-71.982-73.239 c-48.529-8.572-112.98,23.503-101.693,80.679c6.046,30.611,27.739,58.36,58.458,66.86c8.469,2.344,18.039,3.854,26.842,3.854 c18.412,0,32.938-9.572,49.872,2.657c4.952,3.575,10.076,16.13,17.93,13.363c5.741-2.021,6.944-13.659,7.333-18.512 C248.779,290.723,260.511,266.766,260.069,241.688z" style="fill: rgb(17, 43, 31);"/></g><g id="__id15_spmsommwn"><circle cx="131.02" cy="242.066" r="11.328" style="fill: rgb(255, 255, 255);"/></g><g id="__id16_spmsommwn"><circle cx="171.034" cy="242.066" r="11.329" style="fill: rgb(255, 255, 255);"/></g><g id="__id17_spmsommwn"><circle cx="208.928" cy="242.066" r="11.328" style="fill: rgb(255, 255, 255);"/></g></g></svg>